HIERARCHY
ROOT Hips
{
	OFFSET 0.000000 0.000000 0.000000
	CHANNELS 6 Xposition Yposition Zposition Zrotation Xrotation Yrotation
	JOINT Ab
	{
		OFFSET 0.000000 -0.000001 8.084600
		CHANNELS 6 Xposition Yposition Zposition Zrotation Xrotation Yrotation
		JOINT Chest
		{
			OFFSET 0.000000 -0.000004 23.498899
			CHANNELS 6 Xposition Yposition Zposition Zrotation Xrotation Yrotation
			JOINT Neck
			{
				OFFSET 0.000000 -0.000004 23.498898
				CHANNELS 6 Xposition Yposition Zposition Zrotation Xrotation Yrotation
				JOINT Head
				{
					OFFSET 0.000000 -0.000002 10.755600
					CHANNELS 6 Xposition Yposition Zposition Zrotation Xrotation Yrotation
					End Site
					{
						OFFSET 0.000000 -0.000003 16.622200
					}
				}
			}
			JOINT LeftCollar
			{
				OFFSET 0.000000 -0.000004 23.498898
				CHANNELS 6 Xposition Yposition Zposition Zrotation Xrotation Yrotation
				JOINT LeftShoulder
				{
					OFFSET 19.555599 0.000000 0.000000
					CHANNELS 6 Xposition Yposition Zposition Zrotation Xrotation Yrotation
					JOINT LeftElbow
					{
						OFFSET 27.152798 0.000000 0.000000
						CHANNELS 6 Xposition Yposition Zposition Zrotation Xrotation Yrotation
						JOINT LeftWrist
						{
							OFFSET 22.058205 0.000000 0.000000
							CHANNELS 6 Xposition Yposition Zposition Zrotation Xrotation Yrotation
							End Site
							{
								OFFSET 0.000000 0.000002 -14.666702
							}
						}
					}
				}
			}
			JOINT RightCollar
			{
				OFFSET 0.000000 -0.000004 23.498898
				CHANNELS 6 Xposition Yposition Zposition Zrotation Xrotation Yrotation
				JOINT RightShoulder
				{
					OFFSET -19.555599 0.000000 0.000000
					CHANNELS 6 Xposition Yposition Zposition Zrotation Xrotation Yrotation
					JOINT RightElbow
					{
						OFFSET -27.152798 0.000000 0.000000
						CHANNELS 6 Xposition Yposition Zposition Zrotation Xrotation Yrotation
						JOINT RightWrist
						{
							OFFSET -22.058205 0.000000 0.000000
							CHANNELS 6 Xposition Yposition Zposition Zrotation Xrotation Yrotation
							End Site
							{
								OFFSET 0.000000 0.000002 -14.666702
							}
						}
					}
				}
			}
		}
	}
	JOINT LeftHip
	{
		OFFSET 11.733300 0.000000 0.000000
		CHANNELS 6 Xposition Yposition Zposition Zrotation Xrotation Yrotation
		JOINT LeftKnee
		{
			OFFSET 0.000000 0.000007 -44.661701
			CHANNELS 6 Xposition Yposition Zposition Zrotation Xrotation Yrotation
			JOINT LeftAnkle
			{
				OFFSET 0.000000 0.000006 -38.481899
				CHANNELS 6 Xposition Yposition Zposition Zrotation Xrotation Yrotation
				End Site
				{
					OFFSET 0.000000 -16.622198 -4.888901
				}
			}
		}
	}
	JOINT RightHip
	{
		OFFSET -11.733300 0.000000 0.000000
		CHANNELS 6 Xposition Yposition Zposition Zrotation Xrotation Yrotation
		JOINT RightKnee
		{
			OFFSET 0.000000 0.000007 -44.661701
			CHANNELS 6 Xposition Yposition Zposition Zrotation Xrotation Yrotation
			JOINT RightAnkle
			{
				OFFSET 0.000000 0.000006 -38.481899
				CHANNELS 6 Xposition Yposition Zposition Zrotation Xrotation Yrotation
				End Site
				{
					OFFSET 0.000000 -16.622198 -4.888901
				}
			}
		}
	}
}
MOTION
Frames: 7
Frame Time: 0.041667
-48.597500 62.722374 88.457016 -199.554563 -2.414590 -1.088068 -0.000004 -0.000004 8.084600 -4.397106 2.961487 -5.901867 0.000002 0.000005 23.498894 -4.133857 -3.731384 12.758481 -0.000011 -0.000005 23.498898 -3.192031 -0.619103 9.434487 -0.000003 -0.000003 10.755616 -3.711448 -3.377183 -15.798972 -0.000012 -0.000005 23.498898 19.127409 2.431029 14.734683 19.555603 -0.000000 -0.000009 -31.349841 19.052335 58.595633 27.152802 0.000008 0.000003 -19.990301 1.910630 -10.797242 22.058222 -0.000007 0.000008 -1.878414 20.228437 -86.933808 -0.000011 -0.000005 23.498898 -10.617808 3.104257 -31.798212 -19.555599 0.000004 -0.000014 44.550619 33.056203 -56.660869 -27.152807 0.000002 0.000007 32.017424 5.590170 20.331327 -22.058212 -0.000006 0.000015 10.365317 15.907145 86.457156 11.733294 -0.000004 -0.000001 2.519505 0.267620 2.691330 -0.000008 -0.000003 -44.661713 2.061568 19.340302 2.623300 -0.000002 0.000010 -38.481892 21.722635 -19.167813 -1.298660 -11.733301 -0.000006 0.000000 1.452952 -7.233088 7.308092 0.000001 -0.000001 -44.661709 3.509812 8.505653 -1.713232 -0.000007 -0.000001 -38.481892 -17.011896 2.528860 -4.571934 
-48.574566 62.704533 88.460632 -199.516369 -2.399442 -1.097709 0.000003 0.000004 8.084587 -4.404208 2.957516 -5.900921 -0.000006 -0.000003 23.498898 -4.140585 -3.733499 12.755117 -0.000004 -0.000008 23.498924 -3.180463 -0.615355 9.411524 0.000005 0.000005 10.755609 -3.698659 -3.374140 -15.783283 -0.000006 -0.000008 23.498924 19.156321 2.435663 14.735206 19.555611 0.000003 0.000014 -31.507123 19.073892 58.620727 27.152796 -0.000008 0.000009 -20.075678 1.938851 -10.870745 22.058210 -0.000001 0.000012 -1.911774 20.156120 -86.921506 -0.000004 -0.000008 23.498924 -10.615538 3.102671 -31.801429 -19.555590 -0.000003 0.000005 44.513528 33.068241 -56.652919 -27.152826 0.000002 0.000001 31.999300 5.589721 20.331173 -22.058218 -0.000005 0.000016 10.360383 15.896369 86.459676 11.733300 0.000006 0.000001 2.510806 0.261152 2.688518 0.000003 0.000008 -44.661713 2.034378 19.297023 2.613416 0.000006 0.000011 -38.481892 21.719868 -19.134346 -1.290186 -11.733301 0.000003 -0.000009 1.436366 -7.243504 7.301637 0.000003 0.000001 -44.661686 3.500353 8.496439 -1.710763 -0.000005 0.000005 -38.481892 -17.022554 2.529802 -4.556859 
-48.551632 62.686691 88.464256 -199.478175 -2.384293 -1.107350 0.000000 -0.000003 8.084593 -4.411310 2.953545 -5.899975 -0.000001 -0.000002 23.498894 -4.147315 -3.735613 12.751753 0.000006 -0.000006 23.498905 -3.168897 -0.611606 9.388559 -0.000010 -0.000000 10.755593 -3.685866 -3.371096 -15.767596 0.000005 -0.000006 23.498905 19.185228 2.440295 14.735723 19.555601 -0.000012 0.000009 -31.664436 19.095184 58.646005 27.152809 0.000001 -0.000003 -20.161066 1.967040 -10.944159 22.058216 0.000019 -0.000002 -1.945133 20.083802 -86.909219 0.000006 -0.000006 23.498905 -10.613266 3.101085 -31.804643 -19.555603 -0.000006 0.000006 44.476413 33.080262 -56.644962 -27.152803 -0.000002 0.000009 31.981176 5.589275 20.331016 -22.058222 -0.000010 0.000006 10.355446 15.885589 86.462190 11.733298 -0.000004 -0.000011 2.502108 0.254683 2.685707 -0.000007 0.000015 -44.661705 2.007190 19.253743 2.603534 -0.000002 0.000011 -38.481873 21.717090 -19.100868 -1.281703 -11.733298 -0.000001 -0.000001 1.419783 -7.253922 7.295186 -0.000003 0.000011 -44.661716 3.490892 8.487229 -1.708296 -0.000010 0.000009 -38.481892 -17.033211 2.530736 -4.541784 
-48.528698 62.668846 88.467873 -199.439980 -2.369145 -1.116991 0.000001 -0.000001 8.084595 -4.418409 2.949574 -5.899029 0.000001 -0.000011 23.498898 -4.154044 -3.737727 12.748386 0.000003 0.000002 23.498905 -3.157329 -0.607858 9.365593 0.000005 -0.000000 10.755601 -3.673072 -3.368056 -15.751903 0.000002 0.000002 23.498905 19.214140 2.444925 14.736232 19.555599 0.000000 0.000018 -31.821780 19.116193 58.671475 27.152807 0.000004 0.000002 -20.246458 1.995193 -11.017490 22.058220 -0.000001 0.000010 -1.978492 20.011490 -86.896918 0.000006 0.000001 23.498905 -10.610995 3.099499 -31.807860 -19.555599 -0.000004 -0.000000 44.439294 33.092270 -56.636984 -27.152809 0.000001 0.000005 31.963048 5.588826 20.330864 -22.058216 -0.000009 0.000005 10.350508 15.874811 86.464710 11.733303 -0.000001 -0.000006 2.493409 0.248215 2.682897 -0.000002 0.000005 -44.661713 1.980000 19.210464 2.593651 -0.000008 0.000013 -38.481895 21.714302 -19.067397 -1.273207 -11.733296 0.000002 -0.000007 1.403201 -7.264337 7.288732 -0.000007 0.000014 -44.661697 3.481431 8.478017 -1.705828 -0.000005 0.000011 -38.481884 -17.043868 2.531663 -4.526707 
-48.505764 62.651005 88.471497 -199.401786 -2.353998 -1.126632 -0.000001 0.000002 8.084599 -4.425507 2.945603 -5.898084 -0.000003 -0.000007 23.498898 -4.160772 -3.739841 12.745019 0.000003 -0.000003 23.498901 -3.145762 -0.604110 9.342626 0.000001 0.000006 10.755586 -3.660278 -3.365014 -15.736216 0.000001 -0.000003 23.498901 19.243052 2.449553 14.736741 19.555605 0.000000 0.000026 -31.979168 19.136923 58.697143 27.152803 -0.000003 0.000007 -20.331865 2.023305 -11.090735 22.058205 -0.000003 0.000032 -2.011851 19.939168 -86.884617 0.000004 -0.000003 23.498905 -10.608724 3.097913 -31.811080 -19.555607 -0.000006 -0.000007 44.402158 33.104264 -56.629003 -27.152824 0.000004 0.000007 31.944918 5.588377 20.330704 -22.058212 0.000000 0.000005 10.345573 15.864033 86.467231 11.733301 0.000004 -0.000005 2.484712 0.241746 2.680086 -0.000007 0.000006 -44.661701 1.952811 19.167181 2.583768 0.000001 0.000004 -38.481888 21.711498 -19.033926 -1.264702 -11.733302 -0.000001 -0.000002 1.386618 -7.274754 7.282281 -0.000004 0.000007 -44.661709 3.471970 8.468805 -1.703360 0.000001 0.000006 -38.481899 -17.054521 2.532585 -4.511632 
-48.482830 62.633163 88.475113 -199.363591 -2.338850 -1.136273 -0.000003 -0.000002 8.084609 -4.432607 2.941631 -5.897139 -0.000001 -0.000008 23.498899 -4.167503 -3.741955 12.741655 -0.000002 -0.000005 23.498894 -3.134193 -0.600362 9.319661 0.000001 0.000005 10.755609 -3.647485 -3.361972 -15.720527 -0.000004 -0.000005 23.498894 19.271959 2.454177 14.737240 19.555601 -0.000000 0.000006 -32.136583 19.157374 58.722995 27.152784 -0.000001 0.000004 -20.417276 2.051387 -11.163891 22.058218 0.000003 0.000012 -2.045209 19.866848 -86.872329 -0.000002 -0.000005 23.498894 -10.606456 3.096327 -31.814294 -19.555605 -0.000000 0.000004 44.365009 33.116240 -56.621008 -27.152803 0.000003 0.000003 31.926801 5.587928 20.330548 -22.058199 -0.000017 0.000021 10.340637 15.853257 86.469751 11.733294 0.000000 0.000004 2.476011 0.235278 2.677275 -0.000009 0.000006 -44.661701 1.925621 19.123901 2.573885 0.000003 0.000003 -38.481903 21.708687 -19.000458 -1.256186 -11.733302 0.000000 0.000005 1.370035 -7.285169 7.275827 -0.000003 0.000012 -44.661713 3.462512 8.459595 -1.700891 -0.000007 0.000007 -38.481888 -17.065180 2.533501 -4.496554 
-48.459896 62.615322 88.478737 -199.325397 -2.323701 -1.145914 0.000006 -0.000006 8.084606 -4.439708 2.937661 -5.896193 -0.000001 -0.000010 23.498898 -4.174233 -3.744070 12.738287 -0.000005 0.000004 23.498905 -3.122622 -0.596614 9.296694 -0.000003 -0.000002 10.755616 -3.634692 -3.358929 -15.704838 -0.000007 0.000004 23.498905 19.300872 2.458800 14.737740 19.555595 0.000003 0.000018 -32.294043 19.177551 58.749025 27.152798 -0.000012 -0.000003 -20.502698 2.079423 -11.236967 22.058201 -0.000006 0.000005 -2.078569 19.794535 -86.860035 -0.000005 0.000004 23.498905 -10.604185 3.094741 -31.817507 -19.555601 -0.000008 -0.000007 44.327863 33.128210 -56.613006 -27.152821 0.000005 0.000005 31.908670 5.587470 20.330388 -22.058210 -0.000005 0.000010 10.335704 15.842482 86.472264 11.733305 0.000000 0.000000 2.467315 0.228809 2.674464 -0.000002 0.000017 -44.661701 1.898433 19.080618 2.564002 -0.000001 0.000007 -38.481884 21.705863 -18.966988 -1.247660 -11.733298 -0.000002 -0.000002 1.353453 -7.295587 7.269376 -0.000001 0.000016 -44.661701 3.453050 8.450382 -1.698424 -0.000005 0.000008 -38.481880 -17.075833 2.534414 -4.481478 
